<svg width="36" height="36" viewBox="0 0 36 36" fill="none" xmlns="http://www.w3.org/2000/svg">
<path d="M33 17.1667C33.0057 19.3665 32.4918 21.5365 31.5 23.5C30.3241 25.853 28.5162 27.832 26.2791 29.2155C24.0419 30.599 21.4637 31.3324 18.8333 31.3334C16.6336 31.3391 14.4635 30.8252 12.5 29.8334L3 33L6.16667 23.5C5.17489 21.5365 4.66093 19.3665 4.66667 17.1667C4.66768 14.5363 5.40102 11.9581 6.78453 9.72096C8.16804 7.4838 10.1471 5.67599 12.5 4.50005C14.4635 3.50827 16.6336 2.99431 18.8333 3.00005H19.6667C23.1406 3.1917 26.4217 4.65798 28.8819 7.11815C31.3421 9.57831 32.8083 12.8595 33 16.3334V17.1667Z" stroke="white" stroke-width="4.16667" stroke-linecap="round" stroke-linejoin="round"/>
</svg>
