<svg width="40" height="36" viewBox="0 0 40 36" fill="none" xmlns="http://www.w3.org/2000/svg">
<path d="M34.7333 5.68332C33.8821 4.83166 32.8714 4.15607 31.7589 3.69513C30.6465 3.23419 29.4541 2.99695 28.25 2.99695C27.0459 2.99695 25.8535 3.23419 24.7411 3.69513C23.6286 4.15607 22.6179 4.83166 21.7667 5.68332L20 7.44999L18.2333 5.68332C16.5138 3.96384 14.1817 2.99784 11.75 2.99784C9.31827 2.99784 6.98615 3.96384 5.26666 5.68332C3.54717 7.40281 2.58118 9.73493 2.58118 12.1667C2.58118 14.5984 3.54717 16.9305 5.26666 18.65L7.03333 20.4167L20 33.3833L32.9667 20.4167L34.7333 18.65C35.585 17.7987 36.2606 16.788 36.7215 15.6756C37.1825 14.5632 37.4197 13.3708 37.4197 12.1667C37.4197 10.9625 37.1825 9.77016 36.7215 8.65773C36.2606 7.5453 35.585 6.53458 34.7333 5.68332Z" stroke="white" stroke-width="4.16667" stroke-linecap="round" stroke-linejoin="round"/>
</svg>
