<svg version="1.0" xmlns="http://www.w3.org/2000/svg"
 width="500.000000pt" height="500.000000pt" viewBox="0 0 500.000000 500.000000"
 preserveAspectRatio="xMidYMid meet">

<g transform="translate(0.000000,500.000000) scale(0.100000,-0.100000)"
fill="#3F72AF" stroke="none">
<path d="M1788 4320 c-314 -57 -647 -355 -768 -688 -56 -153 -73 -256 -67
-422 5 -158 21 -229 79 -345 47 -92 85 -143 170 -226 l77 -77 -57 -6 c-246
-29 -533 -68 -562 -77 -52 -17 -97 -55 -110 -93 -23 -72 25 -152 103 -171 15
-4 90 -12 165 -19 l137 -11 7 -340 c10 -542 16 -605 69 -691 39 -64 154 -86
219 -41 94 64 104 199 44 602 -17 118 -72 451 -79 481 -5 20 -1 21 198 28 184
6 206 8 247 29 30 15 52 37 68 64 22 40 23 41 60 32 167 -37 411 -6 642 84 94
36 112 47 171 107 79 78 99 126 80 190 -14 46 -52 95 -92 115 -45 24 -118 18
-240 -20 -158 -49 -254 -65 -379 -65 -268 0 -483 117 -583 318 l-42 85 1 121
c0 104 4 132 27 203 57 170 234 379 380 449 137 64 254 64 456 -1 138 -45 192
-46 232 -6 96 96 -72 289 -319 368 -85 27 -251 39 -334 23z"/>
<path d="M3291 3569 c-59 -12 -114 -39 -194 -100 -134 -101 -230 -252 -263
-414 -49 -239 41 -396 270 -469 18 -6 18 -7 2 -25 -30 -33 -36 -133 -35 -586
0 -555 8 -631 73 -702 28 -31 40 -37 87 -40 42 -3 61 0 86 16 45 29 62 67 79
188 15 98 15 124 0 308 -20 237 -73 741 -81 770 -6 19 -1 20 82 21 88 1 172
24 231 62 26 17 28 10 7 -22 -19 -29 -57 -633 -59 -951 -1 -216 -1 -221 24
-270 36 -72 79 -98 154 -93 85 6 119 45 171 196 21 61 40 112 43 112 3 0 38
-30 80 -67 287 -260 356 -296 453 -241 48 27 73 76 66 131 -11 78 -63 123
-289 244 -84 45 -153 85 -152 90 0 4 56 58 123 118 68 61 129 121 137 135 16
30 18 74 3 102 -16 29 -73 50 -116 42 -40 -8 -205 -113 -307 -198 -38 -31 -70
-55 -72 -53 -2 2 -13 102 -24 222 -43 451 -54 495 -129 532 l-40 20 25 24 c45
42 112 137 144 205 38 81 70 210 70 285 0 190 -128 334 -330 369 -36 6 -108
20 -162 31 -53 10 -100 19 -105 18 -4 -1 -28 -5 -52 -10z m184 -333 c96 -62
106 -107 48 -222 -39 -80 -76 -104 -163 -104 -115 0 -170 31 -170 95 0 46 66
171 122 229 42 43 50 48 78 43 16 -4 55 -22 85 -41z"/>
<path d="M2400 2155 c-95 -20 -177 -69 -270 -164 -128 -129 -191 -265 -193
-415 -1 -105 23 -168 93 -238 114 -114 260 -119 440 -15 36 20 74 44 86 52 19
14 22 12 50 -25 16 -22 49 -54 74 -71 40 -27 51 -30 103 -27 46 3 63 10 86 32
41 39 55 101 41 179 -24 133 -119 526 -134 555 -10 19 -42 46 -84 71 -113 68
-197 87 -292 66z m79 -365 c-5 -33 -20 -82 -33 -108 -42 -83 -136 -152 -190
-138 -84 21 21 245 157 336 l62 42 6 -36 c3 -19 2 -63 -2 -96z"/>
</g>
</svg>
